<svg id="news" xmlns="http://www.w3.org/2000/svg" width="17.225" height="17.225" viewBox="0 0 17.225 17.225">
  <g id="Group_135" data-name="Group 135">
    <path id="Path_624" data-name="Path 624" d="M16.61,4.306H13.534V.615A.615.615,0,0,0,12.919,0H.615A.615.615,0,0,0,0,.615V14.764a2.461,2.461,0,0,0,2.461,2.461h12.3a2.461,2.461,0,0,0,2.461-2.461V4.921A.615.615,0,0,0,16.61,4.306ZM4.921,3.076H8.612a.615.615,0,0,1,0,1.23H4.921a.615.615,0,1,1,0-1.23Zm5.537,11.688H3.076a.615.615,0,1,1,0-1.23h7.382a.615.615,0,1,1,0,1.23Zm0-2.461H3.076a.615.615,0,1,1,0-1.23h7.382a.615.615,0,1,1,0,1.23Zm0-2.461H3.076a.615.615,0,1,1,0-1.23h7.382a.615.615,0,1,1,0,1.23Zm0-2.461H3.076a.615.615,0,1,1,0-1.23h7.382a.615.615,0,1,1,0,1.23Zm5.537,7.382a1.23,1.23,0,0,1-2.461,0V5.537h2.461v9.228Z" fill="#2d3650"/>
  </g>
</svg>
