<svg xmlns="http://www.w3.org/2000/svg" width="17.047" height="15.627" viewBox="0 0 17.047 15.627">
  <g id="photo" transform="translate(0 -0.492)">
    <path id="Path_621" data-name="Path 621" d="M4.439,155.882a2.66,2.66,0,0,1-2.516-1.812l-.025-.082a2.593,2.593,0,0,1-.123-.77v-4.843L.052,154.127a1.613,1.613,0,0,0,1.131,1.957l10.984,2.942a1.629,1.629,0,0,0,.409.053,1.584,1.584,0,0,0,1.535-1.161l.64-2.035Zm0,0" transform="translate(0 -142.959)" fill="#2d3650"/>
    <path id="Path_622" data-name="Path 622" d="M150.741,67.333a1.421,1.421,0,1,0-1.421-1.421A1.422,1.422,0,0,0,150.741,67.333Zm0,0" transform="translate(-144.348 -61.869)" fill="#2d3650"/>
    <path id="Path_623" data-name="Path 623" d="M97.751.492H87.1A1.778,1.778,0,0,0,85.32,2.268v7.814A1.778,1.778,0,0,0,87.1,11.857H97.751a1.778,1.778,0,0,0,1.776-1.776V2.268A1.778,1.778,0,0,0,97.751.492ZM87.1,1.913H97.751a.355.355,0,0,1,.355.355V7.311L95.862,4.692a1.272,1.272,0,0,0-.953-.437,1.242,1.242,0,0,0-.949.448L91.322,7.87l-.859-.857a1.247,1.247,0,0,0-1.762,0l-1.96,1.96v-6.7A.355.355,0,0,1,87.1,1.913Zm0,0" transform="translate(-82.479)" fill="#2d3650"/>
  </g>
</svg>
