<svg xmlns="http://www.w3.org/2000/svg" width="14.74" height="22.869" viewBox="0 0 14.74 22.869">
  <g id="quran_1_" data-name="quran(1)" transform="translate(-91)">
    <path id="Path_616" data-name="Path 616" d="M182.34,120.788a3.958,3.958,0,0,1,.064-.711,3.346,3.346,0,1,0,4.667,4.667,3.957,3.957,0,0,1-.711.064A4.024,4.024,0,0,1,182.34,120.788Z" transform="translate(-85.98 -114.714)" fill="#2d3650"/>
    <path id="Path_617" data-name="Path 617" d="M105.74.67a.67.67,0,0,0-.67-.67H93.68A2.683,2.683,0,0,0,91,2.68V16.856a3.318,3.318,0,0,1,2.01-.687h12.73ZM99.375,5.4h.335V5.07a.67.67,0,0,1,1.34,0V5.4h.335a.67.67,0,1,1,0,1.34h-.335V7.08a.67.67,0,0,1-1.34,0V6.745h-.335a.67.67,0,1,1,0-1.34Zm-1.005,7.37a4.686,4.686,0,0,1-.834-9.3A.67.67,0,0,1,98.2,4.525a2.672,2.672,0,0,0,3.728,3.728.67.67,0,0,1,1.048.665A4.681,4.681,0,0,1,98.37,12.775Z" fill="#2d3650"/>
    <path id="Path_618" data-name="Path 618" d="M181,396.69a.67.67,0,0,0,1.042.557l1.638-1.092,1.638,1.092a.67.67,0,0,0,1.042-.557V392H181Z" transform="translate(-85.98 -374.491)" fill="#2d3650"/>
    <path id="Path_619" data-name="Path 619" d="M93.01,396.02h.67V392h-.67a2.01,2.01,0,1,0,0,4.02Z" transform="translate(0 -374.491)" fill="#2d3650"/>
    <path id="Path_620" data-name="Path 620" d="M334.259,393.34a.67.67,0,1,0,0-1.34h-3.35v4.02h3.35a.67.67,0,1,0,0-1.34.67.67,0,0,1,0-1.34Z" transform="translate(-229.189 -374.491)" fill="#2d3650"/>
  </g>
</svg>
