<svg xmlns="http://www.w3.org/2000/svg" width="17.531" height="17.529" viewBox="0 0 17.531 17.529">
  <g id="quran" transform="translate(0 -0.029)">
    <path id="Path_605" data-name="Path 605" d="M61.272,439.135l4.152-1.183-4.81-1.376v2.066a.514.514,0,0,0,.657.493Z" transform="translate(-58.526 -421.595)" fill="#2d3650"/>
    <path id="Path_606" data-name="Path 606" d="M314.75,439.166a.506.506,0,0,0,.205-.411v-2.066l-4.81,1.376,4.152,1.183A.506.506,0,0,0,314.75,439.166Z" transform="translate(-299.512 -421.708)" fill="#2d3650"/>
    <path id="Path_607" data-name="Path 607" d="M276.136.543a.514.514,0,0,0-.676-.487L271,1.542v8.981a3.354,3.354,0,0,1,1.273-.777l3.863-1.287V.543Z" transform="translate(-261.721 0)" fill="#2d3650"/>
    <path id="Path_608" data-name="Path 608" d="M96.136,10.524V1.542L91.676.056A.514.514,0,0,0,91,.543V8.459l3.863,1.288a3.352,3.352,0,0,1,1.273.777Z" transform="translate(-87.884 0)" fill="#2d3650"/>
    <path id="Path_609" data-name="Path 609" d="M16.833,60.025l-1.39.514v8.255a.513.513,0,0,1-.351.487L8.928,71.335a.51.51,0,0,1-.325,0L2.44,69.281a.513.513,0,0,1-.351-.487V60.538L.7,60.025a.512.512,0,0,0-.473.062A.5.5,0,0,0,0,60.508V70.848a.518.518,0,0,0,.37.493c.246.07.1.027.03.008.194.056,1.636.459,8.365,2.386h0c.855-.246.648-.176,8.4-2.393a.518.518,0,0,0,.37-.493V60.508a.5.5,0,0,0-.226-.421.512.512,0,0,0-.473-.062ZM.387,71.345Z" transform="translate(0 -57.91)" fill="#2d3650"/>
    <path id="Path_610" data-name="Path 610" d="M255.966,461.324Z" transform="translate(-247.201 -445.5)" fill="#2d3650"/>
    <path id="Path_611" data-name="Path 611" d="M91,278.81l5.009,1.67a2.33,2.33,0,0,0-1.471-1.462L91,277.838Z" transform="translate(-87.884 -268.297)" fill="#2d3650"/>
    <path id="Path_612" data-name="Path 612" d="M274.7,280.478l5.009-1.67v-.972l-3.538,1.18A2.331,2.331,0,0,0,274.7,280.478Z" transform="translate(-265.298 -268.295)" fill="#2d3650"/>
  </g>
</svg>
