<svg xmlns="http://www.w3.org/2000/svg" width="23.545" height="16.395" viewBox="0 0 23.545 16.395">
  <g id="reading-quran" transform="translate(0.001 -59.368)">
    <path id="Path_598" data-name="Path 598" d="M23.5,67.025l-4.516-7.407a.3.3,0,0,0-.366-.124l-.54.21L18,59.581a.444.444,0,0,0-.54-.182l-5.69,2.217L6.082,59.4a.443.443,0,0,0-.54.182l-.076.124-.54-.21a.3.3,0,0,0-.366.124L.044,67.025a.3.3,0,0,0,.146.437l6.441,2.553-.839,5.4a.3.3,0,0,0,.3.347h.752a.3.3,0,0,0,.17-.053l4.761-3.27,4.761,3.27a.3.3,0,0,0,.17.053h.752a.3.3,0,0,0,.3-.347l-.839-5.4,6.441-2.553a.3.3,0,0,0,.146-.437ZM12.013,69.3V65.441a.241.241,0,0,0-.482,0V69.3L2.774,65.824,6.106,60.36l5.5,2.145a.444.444,0,0,0,.322,0l5.5-2.145,3.332,5.465Z" transform="translate(0)"/>
    <path id="Path_599" data-name="Path 599" d="M221.57,104.533a.241.241,0,0,0-.312-.137l-3.553,1.385a.241.241,0,1,0,.175.449l3.553-1.385A.241.241,0,0,0,221.57,104.533Z" transform="translate(-204.452 -42.301)"/>
    <path id="Path_600" data-name="Path 600" d="M227.434,127.766a.241.241,0,1,0,.175.449l3.553-1.385a.241.241,0,0,0-.175-.449Z" transform="translate(-213.595 -62.962)"/>
    <path id="Path_601" data-name="Path 601" d="M237.8,152.093a.241.241,0,0,0,.312.137l3.553-1.385a.241.241,0,0,0-.175-.449l-3.553,1.385A.241.241,0,0,0,237.8,152.093Z" transform="translate(-223.47 -85.531)"/>
    <path id="Path_602" data-name="Path 602" d="M110.327,105.782l-3.553-1.385a.241.241,0,0,0-.175.449l3.553,1.385a.241.241,0,0,0,.175-.449Z" transform="translate(-100.037 -42.303)"/>
    <path id="Path_603" data-name="Path 603" d="M100.6,127.766l-3.553-1.385a.241.241,0,1,0-.175.449l3.553,1.385a.241.241,0,0,0,.175-.449Z" transform="translate(-90.894 -62.962)"/>
    <path id="Path_604" data-name="Path 604" d="M90.091,151.783,86.538,150.4a.241.241,0,0,0-.175.449l3.553,1.385a.241.241,0,0,0,.175-.449Z" transform="translate(-81.019 -85.533)"/>
  </g>
</svg>
