<svg id="volume" xmlns="http://www.w3.org/2000/svg" width="19.12" height="19.12" viewBox="0 0 19.12 19.12">
  <g id="Group_133" data-name="Group 133">
    <g id="Group_132" data-name="Group 132">
      <path id="Path_613" data-name="Path 613" d="M130.1,184.954h-2.108v3.187H130.1a2,2,0,0,1,.89.21l1.782.891v-5.389l-1.781.891A2,2,0,0,1,130.1,184.954Z" transform="translate(-123.211 -176.987)" fill="#2d3650"/>
      <path id="Path_614" data-name="Path 614" d="M9.56,0a9.56,9.56,0,1,0,9.56,9.56A9.57,9.57,0,0,0,9.56,0Zm1.593,13.543A.8.8,0,0,1,10,14.256L7.066,12.789a.4.4,0,0,0-.178-.042H4.78a1.6,1.6,0,0,1-1.593-1.593V7.967A1.6,1.6,0,0,1,4.78,6.373H6.888a.4.4,0,0,0,.178-.042L10,4.864a.8.8,0,0,1,1.154.712v7.967Zm1.41-1.593a.789.789,0,0,1-.191-.023.8.8,0,0,1-.583-.964,5.812,5.812,0,0,0-.022-2.807.8.8,0,1,1,1.547-.382,7.394,7.394,0,0,1,.022,3.569A.8.8,0,0,1,12.563,11.95Zm2.458,1.182a.8.8,0,1,1-1.394-.771,5.908,5.908,0,0,0,.011-5.583.8.8,0,0,1,1.37-.812A7.513,7.513,0,0,1,15.022,13.132Z" fill="#2d3650"/>
    </g>
  </g>
</svg>
